<svg xmlns="http://www.w3.org/2000/svg" viewBox="0 0 419.45 890.69"><defs><style>.cls-1{font-size:135px;font-family:Comfortaa-Bold, Comfortaa Bold;font-weight:700;}.cls-1,.cls-8{fill:#fff;}.cls-2{letter-spacing:-0.06em;}.cls-3{letter-spacing:0em;}.cls-4{letter-spacing:0em;}.cls-5{letter-spacing:-0.01em;}.cls-6{letter-spacing:0em;}.cls-7{letter-spacing:-0.01em;}</style></defs><g id="Layer_2" data-name="Layer 2"><g id="Layer_1-2" data-name="Layer 1"><text class="cls-1" transform="translate(53.92 694.94)"><tspan class="cls-2">T</tspan><tspan class="cls-3" x="58.46" y="0">a</tspan><tspan class="cls-4" x="123.52" y="0">n</tspan><tspan class="cls-5" x="197.91" y="0">t</tspan><tspan x="241.78" y="0">e</tspan><tspan class="cls-6" x="-15.05" y="162">G</tspan><tspan x="72.83" y="162">e</tspan><tspan class="cls-7" x="140.46" y="162">r</tspan><tspan x="183.26" y="162">da</tspan></text></g><g id="Layer_3" data-name="Layer 3"><g id="Kopp"><path id="fat" class="cls-8" d="M317.8,498q-5.69,4.56-11.55,8.63c29.19,7,35.79,14.65,35.79,17.13s-7.35,11-40.92,18.31c-28.85,6.26-67.31,9.71-108.26,9.71S113.44,548.28,84.57,542c-33.56-7.3-40.9-15.71-40.9-18.31,0-2.35,5.91-9.36,31.46-16.06q-5.85-4-11.5-8.44c-21,6.54-31.21,14.63-31.21,24.5,0,12.43,16.28,22,49.77,29.3,29.62,6.44,68.93,10,110.67,10s81-3.54,110.67-10c33.48-7.28,49.77-16.87,49.77-29.3C353.3,513.18,341.65,504.7,317.8,498Z"/><g id="Kopp-2" data-name="Kopp"><path id="Form" class="cls-8" d="M375.43,342.08A14.14,14.14,0,0,0,365,337.43h-.15c-8.14.1-16.36.28-24.59.55l.17,11.25q12.35-.42,24.53-.54a2.78,2.78,0,0,1,2.14.94,3,3,0,0,1,.75,2.38c-10.37,90-90.5,166.07-175,166.07-89.75,0-165-71.46-175-166.22a2.82,2.82,0,0,1,.74-2.21,3,3,0,0,1,2.17-1c6.92.07,13.88.22,20.83.43l.15-11.26c-6.94-.2-13.91-.35-20.87-.43A14.22,14.22,0,0,0,6.63,353c5.14,48.53,26.66,93.13,60.6,125.53,34.26,32.74,78.87,50.76,125.62,50.76,43.66,0,87.39-18.81,123.15-53,34.85-33.32,57.82-78.17,63-123.07A14.31,14.31,0,0,0,375.43,342.08Z"/><path id="Hank" class="cls-8" d="M419.45,389.59c0,41.74-27.52,44.22-49.62,46.2-4.79.44-9.46.87-13.76,1.62q3.92-6.06,7.38-12.31c1.78-.19,3.58-.36,5.36-.51,22-2,39.38-3.56,39.38-35,0-3.27-1.46-6.37-3.3-7.72-3.24-2.38-11.76-1.18-23.81,2.45,1.33-4.23,2.54-8.47,3.57-12.74,12.89-3.53,21.72-4.45,28,.15C417.22,375.1,419.45,380.94,419.45,389.59Z"/></g><g id="Ansikt"><path id="Smil" class="cls-8" d="M190.43,441.16c-34.82,0-60.7-13.9-61.5-14.33,16.77,16,38.61,25.53,61.51,25.53,21.39,0,42.82-8.81,60.34-25.55C250.78,426.81,225.79,441.16,190.43,441.16Z"/><g id="Briller"><path id="Midtdel" class="cls-8" d="M215.06,343.42c-7.39.18-17.17.28-24.47.28-8.59,0-14.78-.13-23.37-.36l-.17,11.26c8.65.22,14.87.35,23.54.35,7.35,0,17.19-.09,24.64-.26Z"/><path id="Brille_V" data-name="Brille V" class="cls-8" d="M330.69,335.78a21,21,0,0,0-5.58-14.28,19.82,19.82,0,0,0-14.84-6.22l-66.15,1a20,20,0,0,0-14.67,6.66,21.21,21.21,0,0,0-5.14,14.48l.28,19.23a20.16,20.16,0,0,0,20.12,19.82h.3l66.15-1A20.14,20.14,0,0,0,331,355.07ZM310.74,364.2l-65.9,1a9,9,0,0,1-9-8.72l-.28-20a8.77,8.77,0,0,1,4.13-7.62,9.21,9.21,0,0,1,4.93-1.37l65.81-1h.08a8,8,0,0,1,3.58.7,8.92,8.92,0,0,1,5.31,8l.3,19.73A9.09,9.09,0,0,1,310.74,364.2Z"/><path id="Brille_H" data-name="Brille H" class="cls-8" d="M152.5,322.84a19.93,19.93,0,0,0-14.67-6.66l-66.15-1a20,20,0,0,0-14.84,6.21,21,21,0,0,0-5.57,14.31l-.29,19A20.34,20.34,0,0,0,71,375.38l65.92,1h.3A20,20,0,0,0,151.88,370a21.11,21.11,0,0,0,5.48-14.22l.28-18.5A21.14,21.14,0,0,0,152.5,322.84Zm-6.4,33.33a9.18,9.18,0,0,1-.77,3.74,8.9,8.9,0,0,1-8.22,5.19l-66.15-1a8.87,8.87,0,0,1-8.72-9l.3-20A8.83,8.83,0,0,1,65.22,329a9,9,0,0,1,6.29-2.49l66.17,1a8.83,8.83,0,0,1,7.48,4.34,9.34,9.34,0,0,1,1.22,5Z"/></g></g></g><g id="Hår"><g id="Hår-2" data-name="Hår"><g id="Hår_linjer" data-name="Hår linjer"><path class="cls-8" d="M297,288.26v0l-3.07,10h0l-.22-.07-.05,0-.69-.22-.1,0A505.24,505.24,0,0,1,243.46,279l0,0a.05.05,0,0,0,0,0c-11.17-5-22.81-10.76-34.59-17.17l-.46-.25-.2-.11-.45-.25-.16-.09c-15-8.21-29.6-17.13-43.4-26.5-1.92-1.31-3.84-2.63-5.75-4q-2.24-1.54-4.44-3.14c-7.83-5.6-15.56-11.48-23.1-17.54l-3.12-2.53q-4.15-3.39-8.26-6.89c-6.93-5.89-13.75-12-20.38-18.25q-4.47-4.22-8.89-8.57-3.75-3.69-7.46-7.48-5.4-5.52-10.67-11.21-1.78-1.92-3.55-3.86L65,147.24h0l-.14-.15,3.65-3.26,0,0s0,0,0,0l.25-.22v0l3.85-3.43c1.14,1.28,2.3,2.56,3.46,3.83l.22.25h0l1.24,1.35.59.66a2.13,2.13,0,0,1,.21.22l.13.14c.38.41.76.83,1.15,1.24,8.63,9.32,17.55,18.32,26.59,26.83,10,9.47,20.52,18.59,31.14,27.14,8.68,7,17.62,13.7,26.66,20h0q3,2.08,6,4.11c13.55,9.21,27.9,18,42.64,26l.12.06.13.08.24.13.1.06.11.06.37.2.05,0c11.52,6.27,22.88,11.92,33.78,16.78l.12,0,.1.05a492.24,492.24,0,0,0,49,18.75Z"/><path class="cls-8" d="M297,288.26v0l-3.07,10h0l-.22-.07-.05,0-.69-.22-.1,0A505.24,505.24,0,0,1,243.46,279l0,0a.05.05,0,0,0,0,0c-11.17-5-22.81-10.76-34.59-17.17l-.46-.25-.2-.11-.45-.25-.16-.09c-15-8.21-29.6-17.13-43.4-26.5-1.92-1.31-3.84-2.63-5.75-4q-2.24-1.54-4.44-3.14c-7.83-5.6-15.56-11.48-23.1-17.54l-3.12-2.53q-4.15-3.39-8.26-6.89c-6.93-5.89-13.75-12-20.38-18.25q-4.47-4.22-8.89-8.57-3.75-3.69-7.46-7.48-5.4-5.52-10.67-11.21-1.78-1.92-3.55-3.86L65,147.24h0l-.14-.15,3.65-3.26,0,0s0,0,0,0l.25-.22v0l3.85-3.43c1.14,1.28,2.3,2.56,3.46,3.83l.22.25h0l1.24,1.35.59.66a2.13,2.13,0,0,1,.21.22l.13.14c.38.41.76.83,1.15,1.24,8.63,9.32,17.55,18.32,26.59,26.83,10,9.47,20.52,18.59,31.14,27.14,8.68,7,17.62,13.7,26.66,20h0q3,2.08,6,4.11c13.55,9.21,27.9,18,42.64,26l.12.06.13.08.24.13.1.06.11.06.37.2.05,0c11.52,6.27,22.88,11.92,33.78,16.78l.12,0,.1.05a492.24,492.24,0,0,0,49,18.75Z"/><path class="cls-8" d="M376.91,261.26l-1.18,5h0l0,.14h0l-1.17,5-3.65-.87c-1.8-.44-3.6-.88-5.4-1.34a483,483,0,0,1-75.4-26,505,505,0,0,1-75.69-41.88,497.94,497.94,0,0,1-53.89-41.92h0a532.68,532.68,0,0,1-39.73-39.4c-.69-.75-1.37-1.51-2.05-2.27L117.12,116c-.9-1-1.79-2-2.69-3l3.75-3.29h0l.18-.15h0l3.93-3.45,0,.06,1,1.12,0,.06q1.83,2.07,3.67,4.11l.09.09.32.36c.49.53,1,1.07,1.46,1.61l1.88,2.05q16.91,18.36,35.11,34.74,8.25,7.42,16.73,14.4h0q18.27,15,37.56,28a494.85,494.85,0,0,0,74.08,41A472.77,472.77,0,0,0,363.94,258q2.76.74,5.53,1.42c1.83.47,3.66.91,5.49,1.35H375C375.65,261,376.28,261.11,376.91,261.26Z"/><path class="cls-8" d="M362,203.91l-1.82,4.9v0l-1.81,4.87-2.13-.8q-3.45-1.29-6.87-2.64c-5.95-2.34-11.87-4.81-17.67-7.37A504,504,0,0,1,256,161q-8.52-5.73-16.87-11.87-4.45-3.25-8.84-6.65a516.6,516.6,0,0,1-45.17-39.24q-2.52-2.44-5-4.94c-.57-.56-1.14-1.13-1.7-1.7L182.13,93h0l3.72-3.68c1.13,1.15,2.26,2.28,3.4,3.41h0c1.77,1.76,3.56,3.5,5.35,5.23s3.81,3.64,5.73,5.44q18.58,17.35,38.48,32.52,4.26,3.24,8.56,6.37,7.17,5.22,14.46,10.11a493.88,493.88,0,0,0,74.07,41q3.12,1.38,6.27,2.71,3.79,1.61,7.62,3.14,3.63,1.47,7.27,2.86h0Z"/><path class="cls-8" d="M8.43,270.24,5.1,260.31a410.1,410.1,0,0,0,58.92-25,409.67,409.67,0,0,0,60.62-38.7l6.39,8.3a421.46,421.46,0,0,1-62.17,39.69A422.89,422.89,0,0,1,8.43,270.24Z"/><path class="cls-8" d="M24.5,214.32l-4.65-9.38c2.1-1,4.34-2.18,6.65-3.38a409.89,409.89,0,0,0,60.93-38.94l6.4,8.28a420.29,420.29,0,0,1-62.5,39.94C29,212.08,26.67,213.24,24.5,214.32Z"/></g><path class="cls-8" d="M369.84,218.85A208.19,208.19,0,0,0,326.4,148a195.12,195.12,0,0,0-56.73-42.28c-1.55-.76-3.11-1.49-4.67-2.21s-3.32-1.49-5-2.19a174,174,0,0,0-69.34-13.87,175.86,175.86,0,0,0-69.48,15.08q-2.4,1-4.79,2.18c-1.61.76-3.22,1.54-4.81,2.35A199.17,199.17,0,0,0,55,150.08a209.31,209.31,0,0,0-42.64,70A202.15,202.15,0,0,0,.55,304.65a12,12,0,0,0,11.89,11.08,12.18,12.18,0,0,0,2.68-.31c26.44-6.1,52.09-16.15,85.77-33.59,27.3-14.15,49.4-31.13,65.6-44.34a1.44,1.44,0,0,1,1.73-.09c11.64,7.9,25,15.95,39.3,23.68l.16.09c11.46,6.21,23.51,12.21,35.7,17.78a.05.05,0,0,1,0,0l0,0a445.94,445.94,0,0,0,49.36,18.93l.1,0,.48.15.48.15q7.9,2.5,16,4.78A560.36,560.36,0,0,0,367.81,316a11.81,11.81,0,0,0,2,.16,11.9,11.9,0,0,0,11.89-11A205.31,205.31,0,0,0,369.84,218.85Zm1.4,85.47a1.36,1.36,0,0,1-.55,1,1.41,1.41,0,0,1-1.14.29A534.86,534.86,0,0,1,297,288.28a438.57,438.57,0,0,1-49.18-18.83l-.1-.05-.12,0c-11.72-5.36-23.29-11.12-34.31-17.06l-.34-.19-.13-.08-.12-.06c-14-7.59-27.16-15.48-38.55-23.22a12,12,0,0,0-14.22.63l-1.51,1.23c-15.67,12.71-36.69,28.66-62.3,41.93-32.85,17-57.76,26.8-83.3,32.69a1.42,1.42,0,0,1-1.18-.24,1.52,1.52,0,0,1-.6-1.09,190.93,190.93,0,0,1,.64-34.74q.63-5.86,1.63-11.67a196.81,196.81,0,0,1,13-44.05q3.45-8.07,7.61-15.82h0a198.34,198.34,0,0,1,28.79-40.43c1.9-2.06,3.84-4.08,5.81-6,2.49-2.48,5-4.87,7.62-7.19a187.24,187.24,0,0,1,39.25-27c.58-.31,1.17-.6,1.75-.89,2.56-1.28,5.14-2.5,7.74-3.64.73-.33,1.47-.65,2.2-1a168.37,168.37,0,0,1,53.06-13.1q5.31-.4,10.64-.45h1.32c.84,0,1.69,0,2.53,0a165.22,165.22,0,0,1,61.89,13.36q4.83,2.05,9.55,4.4a185.63,185.63,0,0,1,52.7,39.45,196.51,196.51,0,0,1,31.05,44.07q3.49,6.75,6.44,13.74a198.12,198.12,0,0,1,13.23,46.53q.86,5.54,1.4,11.13A195.83,195.83,0,0,1,371.24,304.32Z"/></g><path id="Hårknute" class="cls-8" d="M248.78,24.17A82.52,82.52,0,0,0,107.91,82.52a82.84,82.84,0,0,0,1.94,17.93l0,.11L119.65,96A72.05,72.05,0,1,1,262.48,82.52a73,73,0,0,1-1,12.27l.05,0,9.77,4.37h0l.06-.27A83.45,83.45,0,0,0,273,82.52,82,82,0,0,0,248.78,24.17Z"/></g></g></g></svg>